<svg width="600" height="600" viewBox="0 0 600 600" fill="none" xmlns="http://www.w3.org/2000/svg">
  <rect width="600" height="600" fill="none" />
  <g transform="translate(300 300)">
    <circle r="180" stroke="#F5F5F7" stroke-width="12" opacity="0.45" />
    <path d="M-165 0a165 165 0 0 1 330 0" stroke="#A855F7" stroke-width="16" stroke-linecap="round" stroke-dasharray="140 80" />
    <path d="M-145 -10c0-65 40-105 90-105s90 40 90 105c0 60-30 100-75 108v62h-30v-62c-45-8-75-48-75-108z" fill="#F5F5F7" />
    <circle r="14" fill="#F97316" />
    <circle r="6" fill="#F5F5F7" />
    <g fill="#F5F5F7">
      <polygon points="0,-195 20,-165 -20,-165" />
      <polygon points="195,0 165,20 165,-20" />
      <polygon points="0,195 -20,165 20,165" />
      <polygon points="-195,0 -165,20 -165,-20" />
    </g>
  </g>
</svg>
